<?xml version="1.0" encoding="utf-8"?>
<!-- Generator: Adobe Illustrator 19.0.0, SVG Export Plug-In . SVG Version: 6.00 Build 0)  -->
<svg version="1.1" id="Слой_2" xmlns="http://www.w3.org/2000/svg" xmlns:xlink="http://www.w3.org/1999/xlink" x="0px" y="0px"
	 viewBox="0 0 47.3 105.1" style="enable-background:new 0 0 47.3 105.1;" xml:space="preserve">
<style type="text/css">
	.st0{clip-path:url(#XMLID_62_);}
	.st1{fill:#4B4745;}
</style>
<g id="Слой_1">
	<g id="XMLID_2_">
		<defs>
			<rect id="XMLID_3_" x="0" y="0" width="47.3" height="105.1"/>
		</defs>
		<clipPath id="XMLID_62_">
			<use xlink:href="#XMLID_3_"  style="overflow:visible;"/>
		</clipPath>
		<g id="XMLID_7_" class="st0">
			<path id="XMLID_9_" class="st1" d="M10.4,89.6c0-1.8-0.5-3.6-1.3-5L-14.1,47c-2.3-3.8-6.6-4.3-9.4-1.1c-2.6,3-3,8.1-0.9,11.7
				l17.4,29.1c0.8,1.4,1.3,3.1,1.3,4.9v13.6h16V89.6z"/>
			<path id="XMLID_8_" class="st1" d="M-35.7,58.2l23.1-37.6c0.9-1.4,1.3-3.2,1.3-5V0l-16,0v13.6c0,1.8-0.5,3.5-1.3,4.9l-17.4,29.1
				c-2.1,3.6-1.8,8.7,0.9,11.7C-42.2,62.4-38,61.9-35.7,58.2z"/>
		</g>
		<g id="XMLID_4_" class="st0">
			<path id="XMLID_6_" class="st1" d="M57.7,89.6c0-1.8-0.5-3.6-1.3-5L33.2,47c-2.3-3.8-6.6-4.3-9.4-1.1c-2.6,3-3,8.1-0.9,11.7
				l17.4,29.1c0.8,1.4,1.3,3.1,1.3,4.9v13.6h16V89.6z"/>
			<path id="XMLID_5_" class="st1" d="M11.6,58.2l23.1-37.6c0.9-1.4,1.3-3.2,1.3-5V0l-16,0v13.6c0,1.8-0.5,3.5-1.3,4.9L1.4,47.6
				c-2.1,3.6-1.8,8.7,0.9,11.7C5.1,62.4,9.3,61.9,11.6,58.2z"/>
		</g>
	</g>
</g>
</svg>
