<?xml version="1.0" encoding="utf-8"?>
<!-- Generator: Adobe Illustrator 19.0.0, SVG Export Plug-In . SVG Version: 6.00 Build 0)  -->
<svg version="1.1" id="Слой_1" xmlns="http://www.w3.org/2000/svg" xmlns:xlink="http://www.w3.org/1999/xlink" x="0px" y="0px"
	 viewBox="0 0 20 20" style="enable-background:new 0 0 20 20;" xml:space="preserve">
<style type="text/css">
	.st0{fill:#424242;}
	.st1{fill:#FFFFFF;}
</style>
<g id="XMLID_2_">
	<path id="XMLID_8_" class="st0" d="M19.5,8.1l-2.3-0.6c0,0-0.1,0-0.1-0.1C17,7.2,16.9,7,16.8,6.9c0,0,0-0.1,0-0.1l1.2-2.1
		c0.2-0.3,0.1-0.6-0.1-0.8l-1.8-1.8c-0.1-0.1-0.3-0.2-0.5-0.2c-0.1,0-0.2,0-0.3,0.1l-2.1,1.2c0,0-0.1,0-0.1,0C13,3.1,12.8,3,12.6,3
		c0,0-0.1-0.1-0.1-0.1l-0.6-2.3C11.8,0.2,11.6,0,11.3,0L8.8,0C8.5,0,8.2,0.2,8.1,0.5L7.5,2.8c0,0,0,0.1-0.1,0.1C7.2,3,7,3.1,6.8,3.2
		c0,0-0.1,0-0.1,0L4.6,1.9C4.5,1.9,4.4,1.8,4.3,1.8C4.1,1.8,4,1.9,3.8,2L2,3.8C1.8,4,1.8,4.4,1.9,4.6l1.2,2.1c0,0,0,0.1,0,0.1
		C3.1,7,3,7.2,2.9,7.4c0,0-0.1,0.1-0.1,0.1L0.5,8.1C0.2,8.2,0,8.4,0,8.7l0,2.5c0,0.3,0.2,0.6,0.5,0.7l2.3,0.6c0,0,0.1,0,0.1,0.1
		C3,12.8,3.1,13,3.2,13.2c0,0,0,0.1,0,0.1l-1.2,2.1C1.8,15.6,1.8,16,2,16.2L3.8,18c0.1,0.1,0.3,0.2,0.5,0.2c0.1,0,0.2,0,0.3-0.1
		l2.1-1.2c0,0,0.1,0,0.1,0C7,16.9,7.2,17,7.4,17.1c0,0,0.1,0.1,0.1,0.1l0.6,2.3C8.2,19.8,8.4,20,8.7,20l2.5,0c0.3,0,0.6-0.2,0.7-0.5
		l0.6-2.3c0,0,0-0.1,0.1-0.1c0.2-0.1,0.4-0.2,0.6-0.2c0,0,0.1,0,0.1,0l2.1,1.2c0.1,0.1,0.2,0.1,0.3,0.1h0c0.2,0,0.3-0.1,0.5-0.2
		l1.8-1.8c0.2-0.2,0.3-0.6,0.1-0.8l-1.2-2.1c0,0,0-0.1,0-0.1c0.1-0.2,0.2-0.4,0.2-0.6c0,0,0.1-0.1,0.1-0.1l2.3-0.6
		c0.3-0.1,0.5-0.3,0.5-0.6l0-2.5C20,8.5,19.8,8.2,19.5,8.1z"/>
	<path id="XMLID_5_" class="st1" d="M13.2,10c0-1.8-1.4-3.2-3.2-3.2S6.8,8.2,6.8,10s1.4,3.2,3.2,3.2S13.2,11.8,13.2,10z"/>
</g>
</svg>
