<?xml version="1.0" encoding="utf-8"?>
<!-- Generator: Adobe Illustrator 19.0.0, SVG Export Plug-In . SVG Version: 6.00 Build 0)  -->
<svg version="1.1" id="Слой_1" xmlns="http://www.w3.org/2000/svg" xmlns:xlink="http://www.w3.org/1999/xlink" x="0px" y="0px"
	 viewBox="0 0 30 30" style="enable-background:new 0 0 30 30;" xml:space="preserve">
<style type="text/css">
	.st0{fill:#4D4E53;}
</style>
<g id="XMLID_2_">
	<path id="XMLID_5_" class="st0" d="M29.9,26V11.8c0,0-10.7-8.8-13.1-11c-2-1.9-3.7,0-3.7,0L0,12.2c0,0,0,9.3,0,13.5
		c0,0.7,0.1,1.3,0.3,1.8L9,17.8l-7.3-5.4L14.9,1.2l13.7,11.2l-8,5.7l9.1,10.1C30.1,27.1,29.9,26,29.9,26z"/>
	<path id="XMLID_4_" class="st0" d="M14.7,22.4l-3.8-3L2,29.3c1.1,0.6,2.2,0.6,2.2,0.6s19.1,0,22.9,0c0.3,0,0.5,0,0.8-0.1l-9.2-10.2
		L14.7,22.4z"/>
	<polygon id="XMLID_3_" class="st0" points="23.7,14.2 23.7,11 6.3,11 6.3,13.8 14.8,20.4 	"/>
</g>
</svg>
