<?xml version="1.0" encoding="utf-8"?>
<!-- Generator: Adobe Illustrator 19.0.0, SVG Export Plug-In . SVG Version: 6.00 Build 0)  -->
<svg version="1.1" id="Слой_1" xmlns="http://www.w3.org/2000/svg" xmlns:xlink="http://www.w3.org/1999/xlink" x="0px" y="0px"
	 viewBox="-20 26.5 187.6 95.5" style="enable-background:new -20 26.5 187.6 95.5;" xml:space="preserve">
<style type="text/css">
	.st0{opacity:0.28;fill:url(#XMLID_6_);enable-background:new    ;}
	.st1{fill:#FCD81D;}
	.st2{opacity:0.4;fill:url(#XMLID_11_);enable-background:new    ;}
	.st3{fill:#4D4E53;}
	.st4{font-family:'VolvoBroadPro';}
	.st5{font-size:41px;}
</style>
<g id="XMLID_2_">
	<g id="XMLID_4_">
		<g id="XMLID_7_">
			
				<radialGradient id="XMLID_6_" cx="-23.692" cy="-31.5129" r="11.9923" gradientTransform="matrix(1.9392 0 0 -0.462 119.5435 99.013)" gradientUnits="userSpaceOnUse">
				<stop  offset="0" style="stop-color:#000000"/>
				<stop  offset="0.1458" style="stop-color:#000000;stop-opacity:0.8542"/>
				<stop  offset="1" style="stop-color:#000000;stop-opacity:0"/>
			</radialGradient>
			<ellipse id="XMLID_10_" class="st0" cx="73.6" cy="113.6" rx="23.3" ry="5.5"/>
			<polygon id="XMLID_9_" class="st1" points="73.6,77.9 67.1,77.9 73.6,113.6 80,77.9 			"/>
			
				<linearGradient id="XMLID_11_" gradientUnits="userSpaceOnUse" x1="73.55" y1="37.4" x2="73.55" y2="73.1" gradientTransform="matrix(1 0 0 -1 0 151)">
				<stop  offset="0.4105" style="stop-color:#000000;stop-opacity:0"/>
				<stop  offset="0.914" style="stop-color:#000000;stop-opacity:0.8542"/>
				<stop  offset="1" style="stop-color:#000000"/>
			</linearGradient>
			<polygon id="XMLID_8_" class="st2" points="73.6,77.9 67.1,77.9 73.6,113.6 80,77.9 			"/>
		</g>
		<path id="XMLID_5_" class="st1" d="M167.1,80c0,1.1-0.9,2-2,2H-18c-1.1,0-2-0.9-2-2V28.5c0-1.1,0.9-2,2-2h183.2c1.1,0,2,0.9,2,2
			L167.1,80L167.1,80z"/>
	</g>
	<text id="XMLID_3_" transform="matrix(1 0 0 1 7.5915 67.7726)" class="st3 st4 st5">Заречная 2</text>
</g>
</svg>
