<?xml version="1.0" encoding="utf-8"?>
<!-- Generator: Adobe Illustrator 19.0.0, SVG Export Plug-In . SVG Version: 6.00 Build 0)  -->
<svg version="1.1" id="Слой_1" xmlns="http://www.w3.org/2000/svg" xmlns:xlink="http://www.w3.org/1999/xlink" x="0px" y="0px"
	 viewBox="0 0 30 30" style="enable-background:new 0 0 30 30;" xml:space="preserve">
<style type="text/css">
	.st0{fill:#4D4E53;}
</style>
<g id="XMLID_2_">
	<path id="XMLID_4_" class="st0" d="M25.7,18L14.6,7.4L4.1,17.9c0,0,0,3.2,0,7.1c0,3.9,7,3.7,7,3.7l0.1-6.9h7.7v6.9
		c7.7,0.1,6.9-3.5,6.9-3.5V18z"/>
	<path id="XMLID_3_" class="st0" d="M29.4,13.8c-1.9-2-12.4-11.6-12.4-11.6s-2.6-2-4.9,0C9.9,4.3,1.1,12.7,1.1,12.7
		s-2.7,2.3,0.3,4.7L14.6,4.5l13.7,12.9C28.2,17.4,31.3,15.8,29.4,13.8z"/>
</g>
</svg>
