<?xml version="1.0" encoding="utf-8"?>
<!-- Generator: Adobe Illustrator 19.0.0, SVG Export Plug-In . SVG Version: 6.00 Build 0)  -->
<svg version="1.1" id="Слой_1" xmlns="http://www.w3.org/2000/svg" xmlns:xlink="http://www.w3.org/1999/xlink" x="0px" y="0px"
	 viewBox="0 0 34 30" style="enable-background:new 0 0 34 30;" xml:space="preserve">
<style type="text/css">
	.st0{fill:#7F8C8D;}
	.st1{fill-rule:evenodd;clip-rule:evenodd;fill:#ECF0F1;}
</style>
<rect id="XMLID_131_" x="0" y="0" class="st0" width="34" height="30"/>
<g id="XMLID_2_">
	<path id="XMLID_3_" class="st1" d="M13,17l-2.4,3.1c-0.1,0.1,0,0.2,0,0.2l0,0l1.8,1.5c0.4,0.3,0.9,0.4,1.3,0.4
		c0.5,0,0.9-0.3,1.2-0.7c1.2-1.5,2.3-3.1,3.3-4.8c1-1.7,1.8-3.5,2.5-5.3c0.2-0.5,0.1-1,0-1.4c-0.2-0.4-0.5-0.8-1-0.9l-2.2-0.9
		c-0.1,0-0.2,0-0.2,0.1l0,0l-1.4,3.6c0,0.1,0,0.2,0.1,0.2h0l0,0l1.2,0.5c-0.4,0.9-0.9,1.8-1.4,2.7l0,0c-0.5,0.9-1,1.7-1.6,2.5
		l-1-0.8C13.2,16.9,13.1,17,13,17L13,17L13,17z M17.6,12.6L17.6,12.6L17.6,12.6z"/>
</g>
</svg>
