<?xml version="1.0" encoding="utf-8"?>
<!-- Generator: Adobe Illustrator 19.0.0, SVG Export Plug-In . SVG Version: 6.00 Build 0)  -->
<svg version="1.1" id="Layer_1" xmlns="http://www.w3.org/2000/svg" xmlns:xlink="http://www.w3.org/1999/xlink" x="0px" y="0px"
	 viewBox="16 -35.8 66 100.8" style="enable-background:new 16 -35.8 66 100.8;" xml:space="preserve">
<style type="text/css">
	.st0{stroke:#000000;stroke-width:0.25;stroke-miterlimit:10;}
	.st1{display:none;}
	.st2{display:inline;fill:#FCD81D;}
	.st3{fill:#FCD81D;}
	.st4{font-family:'Cuprum-Bold';}
	.st5{font-size:11px;}
	.st6{fill:none;stroke:#FCD81D;stroke-width:0.5;stroke-miterlimit:10;}
</style>
<path class="st0" d="M72.3-26.6c-12.9-12.3-33.8-12.3-46.7,0C12.8-14.3,12.8,5.7,25.7,18c0,0,23.3,21.8,23.3,47
	c0-25.2,23.3-47,23.3-47C85.2,5.7,85.2-14.3,72.3-26.6z"/>
<g id="XMLID_32_" class="st1">
	<path id="XMLID_8_" class="st2" d="M45.1,39.3c-0.4,0.1-0.9,0.6-1.2,0.9l0.4,0.9c0.1-0.1,0.5,0.9,0.7,1.8c0,0.4,0,0,0.3-0.1
		c0.4-0.1,2.8,0,4,0c2-0.1,2.3-3.6-0.2-3.6C48.5,39.3,45.5,39.2,45.1,39.3z"/>
	<path id="XMLID_3_" class="st2" d="M50.9,34.4c0.4,0.1,2.7,1.9,4.4,3.5L54,40.8c-0.1-0.1,0,0-0.1-0.1C52.2,39.1,51,38,50.7,38
		c-0.4-0.1-2.8,0-4,0c-2-0.1-2.3-3.6,0.2-3.6C47.5,34.4,50.6,34.3,50.9,34.4z"/>
	<path id="XMLID_2_" class="st2" d="M45.1,28.5c-0.4,0.1-3.5,2.7-5.2,4.3l0.9,1.7c0.1-0.1,0.5,1.1,0.6,1c1.7-1.6,3.6-3.5,3.9-3.6
		c0.4-0.1,2.8,0,4,0c2-0.1,2.3-3.6-0.2-3.6C48.5,28.5,45.5,28.4,45.1,28.5z"/>
	<path id="XMLID_1_" class="st2" d="M50.9,23.6c0.4,0.1,3.5,2.7,5.2,4.3v4.2c-0.1-0.1-1.4-1.4-1.5-1.5c-1.7-1.6-3.6-3.4-3.9-3.4
		c-0.4-0.1-2.8,0-4,0c-2-0.1-2.3-3.6,0.2-3.6C47.5,23.6,50.6,23.5,50.9,23.6z"/>
	<path id="XMLID_6_" class="st2" d="M45.1,18.2c-0.4,0.1-3.5,2.7-5.2,4.3v3.1c0.1-0.1,1,0.1,1.1,0c1.7-1.6,4-3.8,4.3-3.9
		c0.4-0.1,2.8,0,4,0c2-0.1,2.3-3.6-0.2-3.6C48.5,18.2,45.5,18.1,45.1,18.2z"/>
	<path id="XMLID_5_" class="st2" d="M50.9,13.3c0.4,0.1,3.5,2.7,5.2,4.3v4.2c-0.1-0.1-1.4-1.4-1.5-1.5c-1.7-1.6-3.6-3.4-3.9-3.4
		c-0.4-0.1-2.8,0-4,0c-2-0.1-2.3-3.6,0.2-3.6C47.5,13.3,50.6,13.2,50.9,13.3z"/>
	<path id="XMLID_7_" class="st2" d="M45.1,8.4c-0.4,0.1-3.5,2.7-5.2,4.3v4.2c0.1-0.1,1.4-1.4,1.5-1.5c1.7-1.6,3.6-3.4,3.9-3.4
		c0.4-0.1,2.8,0,4,0c2-0.1,2.3-3.6-0.2-3.6C48.5,8.4,45.5,8.2,45.1,8.4z"/>
	<path id="XMLID_4_" class="st2" d="M50.9,3.4c0.4,0.1,3.5,2.7,5.2,4.3v4.2c-0.1-0.1-1.4-1.4-1.5-1.5C52.9,8.8,51,7,50.7,7
		c-0.4-0.1-2.8,0-4,0c-2-0.1-2.3-3.6,0.2-3.6C47.5,3.4,50.6,3.3,50.9,3.4z"/>
</g>
<text transform="matrix(1 0 0 1 23.0824 0.3249)" class="st3 st4 st5">ЗАРЕЧНАЯ 2</text>
<path class="st6" d="M70.9-25.1c-12.1-11.6-31.8-11.6-43.9,0C15-13.5,15,5.2,27.1,16.8c0,0,21.9,20.5,21.9,44.2
	c0-23.7,21.9-44.2,21.9-44.2C83,5.2,83-13.5,70.9-25.1z"/>
</svg>
