<?xml version="1.0" encoding="utf-8"?>
<!-- Generator: Adobe Illustrator 19.0.0, SVG Export Plug-In . SVG Version: 6.00 Build 0)  -->
<svg version="1.1" id="Слой_1" xmlns="http://www.w3.org/2000/svg" xmlns:xlink="http://www.w3.org/1999/xlink" x="0px" y="0px"
	 viewBox="79 -32.5 187.6 95.5" style="enable-background:new 79 -32.5 187.6 95.5;" xml:space="preserve">
<style type="text/css">
	.st0{opacity:0.28;fill:url(#XMLID_3_);enable-background:new    ;}
	.st1{fill:#FCD81D;}
	.st2{opacity:0.4;fill:url(#XMLID_6_);enable-background:new    ;}
	.st3{enable-background:new    ;}
	.st4{fill:#4D4E53;}
</style>
<g id="XMLID_2_">
	<g id="XMLID_4_">
		<g id="XMLID_7_">
			
				<radialGradient id="XMLID_3_" cx="103.9862" cy="-66.775" r="11.9904" gradientTransform="matrix(1.9392 0 0 0.462 -28.8501 85.422)" gradientUnits="userSpaceOnUse">
				<stop  offset="0" style="stop-color:#000000"/>
				<stop  offset="0.1458" style="stop-color:#000000;stop-opacity:0.8542"/>
				<stop  offset="1" style="stop-color:#000000;stop-opacity:0"/>
			</radialGradient>
			<ellipse id="XMLID_10_" class="st0" cx="172.8" cy="54.6" rx="23.3" ry="5.5"/>
			<polygon id="XMLID_9_" class="st1" points="172.8,18.9 166.3,18.9 172.8,54.6 179.2,18.9 			"/>
			
				<linearGradient id="XMLID_6_" gradientUnits="userSpaceOnUse" x1="172.75" y1="-66.4" x2="172.75" y2="-102.1" gradientTransform="matrix(1 0 0 1 0 121)">
				<stop  offset="0.4105" style="stop-color:#000000;stop-opacity:0"/>
				<stop  offset="0.914" style="stop-color:#000000;stop-opacity:0.8542"/>
				<stop  offset="1" style="stop-color:#000000"/>
			</linearGradient>
			<polygon id="XMLID_8_" class="st2" points="172.8,18.9 166.3,18.9 172.8,54.6 179.2,18.9 			"/>
		</g>
		<path id="XMLID_5_" class="st1" d="M266.3,21c0,1.1-0.9,2-2,2H81.2c-1.1,0-2-0.9-2-2v-51.5c0-1.1,0.9-2,2-2h183.2c1.1,0,2,0.9,2,2
			L266.3,21L266.3,21z"/>
	</g>
	<g class="st3">
		<path class="st4" d="M104.2-16.9c0-1.6,0.4-1.7,1.4-1.7h4.6c0.7,0,2.1,0.1,3.1,0.9c1.4,1.2,1.5,3.7,1.5,5.5c0,2.7-0.2,5.1-2.5,6.5
			c1.3,0.8,2.7,1.6,2.7,6.6c0,4-0.7,5.6-1.4,6.4c-1.2,1.4-2.7,1.4-3.8,1.4h-4.6c-0.9,0-1.4-0.1-1.4-1.7V5.7c0-1.8,0.6-1.8,1.4-1.8
			h3.2c1.3,0,1.6-1.4,1.6-3.8s-0.3-3.4-1.3-3.4h-2c-1,0-1.2-0.2-1.2-1.7v-1.4c0-1.5,0.2-1.7,1.2-1.7h2c0.5,0,1.2-0.6,1.2-2.8
			c0-2-0.7-2.8-1.5-2.8h-2.9c-0.8,0-1.4,0-1.4-1.8V-16.9z"/>
		<path class="st4" d="M130,8.8h-3.9c-0.4,0-0.6-0.2-0.7-0.7l-0.8-5.8c-0.1-0.5-0.2-0.7-0.7-0.7h-1.7c-0.5,0-0.6,0.1-0.7,0.7
			l-0.7,5.9c0,0.5-0.2,0.7-0.7,0.7h-3.8c-0.5,0-0.7-0.2-0.7-0.6L119-17c0.2-1.2,0.6-1.6,1.7-1.6h4.8c1,0,1.4,0.4,1.6,1.6l3.6,25.1
			C130.7,8.6,130.4,8.8,130,8.8z M123.4-13.1c0-0.5-0.1-0.6-0.3-0.6s-0.3,0.2-0.3,0.7L122-3.7c0,0.2,0.1,0.5,0.5,0.5h1
			c0.4,0,0.6-0.2,0.6-0.5L123.4-13.1z"/>
		<path class="st4" d="M140.1-1.4h-3.4V7c0,1.4-0.2,1.8-1.3,1.8h-2.2c-1.1,0-1.3-0.3-1.3-1.8v-23.7c0-1.4,0.3-1.9,1.3-1.9h6.3
			c3.4,0,5.2,3,5.2,8.7C144.7-4.3,143.1-1.4,140.1-1.4z M138.5-13.7h-1.2c-0.4,0-0.7,0.1-0.7,0.7v6.1c0,0.5,0.2,0.7,0.6,0.7h1.4
			c0.8,0,1.2-0.4,1.2-3.6C139.9-13.2,139.5-13.7,138.5-13.7z"/>
		<path class="st4" d="M155.8,8.8h-8.4c-1.1,0-1.4-0.4-1.4-1.8v-23.7c0-1.4,0.4-1.8,1.4-1.8h8.1c1,0,1.3,0.3,1.3,1.6v1.5
			c0,1.4-0.3,1.7-1.3,1.7h-4c-0.6,0-0.7,0.2-0.7,0.9V-9c0,0.8,0,0.9,0.7,0.9h2c0.9,0,1.2,0.3,1.2,1.4v2.1c0,1.1-0.3,1.4-1.2,1.4h-2
			c-0.6,0-0.7,0.1-0.7,0.6V3c0,0.7,0.1,0.9,0.9,0.9h4.1c1.1,0,1.5,0.5,1.5,1.8V7C157.2,8.3,156.8,8.8,155.8,8.8z"/>
		<path class="st4" d="M171.2,7.1c0,1.6-0.5,1.7-1.2,1.7h-2.3c-0.7,0-1.3,0-1.3-1.7v-7.7c0-0.4,0.1-0.9-0.6-0.9h-1
			c-3.9,0-6.6,0.4-6.6-6.6v-8.8c0-1.8,0.9-1.8,1.4-1.8h2.2c1.1,0,1.2,1,1.2,1.7v8.7c0,1.9,0.8,1.9,1.8,1.9h0.7c0.8,0,0.8-0.6,0.8-1
			v-9.6c0-1.8,0.9-1.7,1.3-1.7h2.1c1.2,0,1.4,0.8,1.4,1.8V7.1z"/>
		<path class="st4" d="M185.3,8.8h-2.2c-1.1,0-1.3-0.6-1.3-1.8v-9.5c0-0.7-0.1-0.9-0.7-0.9h-2.5c-0.5,0-0.7,0.2-0.7,0.9V7
			c0,1.2-0.2,1.8-1.3,1.8h-2.2c-1,0-1.4-0.4-1.4-1.8v-23.8c0-1.3,0.4-1.8,1.4-1.8h2.2c0.9,0,1.2,0.5,1.2,1.7v7.9
			c0,0.7,0.2,0.8,0.6,0.8h2.5c0.4,0,0.6-0.1,0.6-0.8v-7.9c0-1.2,0.3-1.7,1.2-1.7h2.2c1,0,1.4,0.5,1.4,1.8V7
			C186.7,8.4,186.4,8.8,185.3,8.8z"/>
		<path class="st4" d="M202.2,8.8h-3.9c-0.4,0-0.6-0.2-0.7-0.7l-0.8-5.8c-0.1-0.5-0.2-0.7-0.7-0.7h-1.7c-0.4,0-0.6,0.1-0.7,0.7
			l-0.7,5.9c0,0.5-0.2,0.7-0.7,0.7h-3.8c-0.5,0-0.7-0.2-0.7-0.6l3.3-25.2c0.2-1.2,0.6-1.6,1.7-1.6h4.8c1,0,1.4,0.4,1.6,1.6l3.6,25.1
			C202.9,8.6,202.6,8.8,202.2,8.8z M195.6-13.1c0-0.5-0.1-0.6-0.3-0.6s-0.3,0.2-0.3,0.7l-0.7,9.4c0,0.2,0.1,0.5,0.5,0.5h1
			c0.4,0,0.6-0.2,0.6-0.5L195.6-13.1z"/>
		<path class="st4" d="M203.2,8.2c0-0.1,0-0.3,0.1-0.5L205.6-4c-1.6-1.4-2.2-3.1-2.2-6.2c0-5.7,1.8-8.4,5.6-8.4h5.9
			c1.1,0,1.4,0.5,1.4,1.8V7c0,1.4-0.3,1.8-1.3,1.8h-2.2c-1,0-1.4-0.5-1.4-1.7v-9.3c0-0.4-0.2-0.4-0.5-0.4h-0.6c-0.3,0-0.4,0-0.5,0.4
			l-1.7,9.8c-0.2,1-0.4,1.2-1.1,1.2h-3.2C203.4,8.8,203.2,8.6,203.2,8.2z M208.2-10.7c0,2.3,0.5,3.3,1.5,3.3h1.4
			c0.3,0,0.4-0.2,0.4-0.7v-5c0-0.3-0.2-0.6-0.5-0.6h-1.3C208.7-13.7,208.2-13.1,208.2-10.7z"/>
		<path class="st4" d="M222.2,9l-0.8,2.1c-0.2,0.6-0.5,0.8-0.9,0.8h-2c-0.5,0-0.6-0.2-0.4-0.7l0.7-1.8c0.3-0.7,0-0.7-0.2-0.7h-0.2
			c-0.5,0-0.7-0.3-0.7-1v-2c0-1.3,0.1-1.8,1.3-1.8h2.3c1.1,0,1.3,0.5,1.3,1.8v1.3C222.6,7.5,222.6,8,222.2,9z"/>
		<path class="st4" d="M240.8,8.8h-8.4c-1.1,0-1.4-0.4-1.4-1.8V4.6c0-1.2,0.3-2.8,0.7-3.7l4.2-8.4c0.6-1.1,1.1-2,1.1-3.9
			c0-1.8-0.6-2.3-1.6-2.3h-2.3c-1.4,0-1.6-0.2-1.6-1.7v-1.5c0-1.4,0.3-1.7,1.4-1.7h4.8c1.6,0,2.7,0.5,3.3,1.7
			c0.6,1.2,0.8,3.1,0.8,5.5c0,1.9-0.3,3.3-1.3,5.2L236,3.1c-0.3,0.5-0.2,0.8,0.3,0.8h4.7c0.9,0,1.3,0.3,1.3,1.6v1.6
			C242.3,8.4,242,8.8,240.8,8.8z"/>
	</g>
</g>
</svg>
