<?xml version="1.0" encoding="utf-8"?>
<!-- Generator: Adobe Illustrator 19.0.0, SVG Export Plug-In . SVG Version: 6.00 Build 0)  -->
<svg version="1.1" id="Слой_1" xmlns="http://www.w3.org/2000/svg" xmlns:xlink="http://www.w3.org/1999/xlink" x="0px" y="0px"
	 viewBox="0 0 30 30" style="enable-background:new 0 0 30 30;" xml:space="preserve">
<style type="text/css">
	.st0{fill:#4D4E53;}
</style>
<path id="XMLID_2_" class="st0" d="M25.6,2.2c-4.2-0.1-7,2.2-8.4,6.9c0.8-0.3,1.5-0.5,2.2-0.5c1.5,0,2.2,0.8,2,2.5
	c-0.1,1-0.8,2.5-2,4.5c-1.3,2-2.2,2.9-2.8,2.9c-0.8,0-1.5-1.5-2.2-4.5c-0.2-0.9-0.6-3.1-1.2-6.8c-0.5-3.4-2-4.9-4.3-4.7
	c-1,0.1-2.5,1-4.4,2.7C2.9,6.5,1.5,7.8,0,9.1l1.4,1.8C2.8,10,3.5,9.5,3.8,9.5c1,0,2,1.6,2.9,4.8c0.8,2.9,1.6,5.8,2.4,8.8
	c1.2,3.2,2.7,4.8,4.4,4.8c2.8,0,6.3-2.6,10.4-7.8c3.9-5,6-9,6.1-11.8C30.2,4.3,28.7,2.3,25.6,2.2z"/>
</svg>
