<?xml version="1.0" encoding="utf-8"?>
<!-- Generator: Adobe Illustrator 19.0.0, SVG Export Plug-In . SVG Version: 6.00 Build 0)  -->
<svg version="1.1" id="Layer_1" xmlns="http://www.w3.org/2000/svg" xmlns:xlink="http://www.w3.org/1999/xlink" x="0px" y="0px"
	 viewBox="16 -35.8 66 100.8" style="enable-background:new 16 -35.8 66 100.8;" xml:space="preserve">
<style type="text/css">
	.st0{stroke:#000000;stroke-width:0.25;stroke-miterlimit:10;}
	.st1{enable-background:new    ;}
	.st2{fill:#FCD81D;}
	.st3{fill:none;stroke:#FCD81D;stroke-width:0.5;stroke-miterlimit:10;}
</style>
<path class="st0" d="M72.3-26.6c-12.9-12.3-33.8-12.3-46.7,0C12.8-14.3,12.8,5.7,25.7,18c0,0,23.3,21.8,23.3,47
	c0-25.2,23.3-47,23.3-47C85.2,5.7,85.2-14.3,72.3-26.6z"/>
<g class="st1">
	<path class="st2" d="M24,0.4c-0.3,0-0.6-0.1-0.7-0.2v-0.6h1.6c0.5,0,0.8-0.1,1-0.3s0.3-0.6,0.3-1.1s-0.1-0.9-0.3-1.1
		s-0.6-0.3-1-0.3H24v-0.9h0.8c0.8,0,1.3-0.5,1.3-1.4c0-0.4-0.1-0.6-0.3-0.8s-0.5-0.3-0.9-0.3h-1.4v-0.6c0.2-0.1,0.4-0.1,0.7-0.2
		s0.6-0.1,0.8-0.1c0.9,0,1.5,0.2,1.9,0.5c0.4,0.3,0.6,0.8,0.6,1.5c0,0.4-0.1,0.8-0.3,1.1c-0.2,0.3-0.5,0.5-0.8,0.7v0
		c0.4,0.1,0.8,0.4,1,0.7c0.2,0.3,0.4,0.7,0.4,1.2c0,0.8-0.2,1.3-0.6,1.7s-1.1,0.6-2.1,0.6C24.6,0.4,24.3,0.4,24,0.4z"/>
	<path class="st2" d="M28.2,0.3l2-7.7h1.6l2,7.7h-1.4l-0.5-1.9h-1.9l-0.5,1.9H28.2z M30.2-2.5h1.5L31-5.6h0L30.2-2.5z"/>
	<path class="st2" d="M34.7-7.3c0.3-0.1,0.6-0.1,0.9-0.2s0.7,0,1.1,0c0.9,0,1.6,0.2,2,0.6c0.4,0.4,0.6,1.1,0.6,2.1
		c0,1-0.2,1.8-0.6,2.2c-0.4,0.4-0.9,0.7-1.7,0.7c-0.1,0-0.2,0-0.4,0c-0.2,0-0.4,0-0.5-0.1v2.3h-1.3V-7.3z M36.7-2.8
		c0.4,0,0.8-0.1,1-0.4c0.2-0.3,0.3-0.8,0.3-1.5c0-0.7-0.1-1.2-0.3-1.5c-0.2-0.3-0.5-0.4-1-0.4h-0.6v3.9H36.7z"/>
	<path class="st2" d="M40.4,0.3v-7.7h4v0.9h-2.7v2.4h2.4v0.9h-2.4v2.7h2.7v0.9H40.4z"/>
	<path class="st2" d="M48.7-2.5c-0.1,0-0.3,0.1-0.5,0.1c-0.2,0-0.4,0-0.5,0c-0.7,0-1.3-0.2-1.6-0.6c-0.4-0.4-0.6-0.9-0.6-1.7v-2.7
		h1.3v2.7c0,0.5,0.1,0.8,0.3,1s0.5,0.3,1,0.3h0.6v-4.1H50v7.7h-1.3V-2.5z"/>
	<path class="st2" d="M51.5,0.3v-7.7h1.3V-4h2v-3.4h1.3v7.7h-1.3v-3.5h-2v3.5H51.5z"/>
	<path class="st2" d="M57.1,0.3l2-7.7h1.7l2,7.7h-1.4l-0.5-1.9h-1.9l-0.5,1.9H57.1z M59.1-2.5h1.5l-0.7-3.1h0L59.1-2.5z"/>
	<path class="st2" d="M63.2,0.4C63,0.4,63,0.3,63,0.3v-0.6c0.2,0,0.4,0,0.5-0.1c0.1-0.1,0.2-0.2,0.3-0.5l0.3-0.9
		c0.1-0.3,0.2-0.6,0.4-0.8S64.7-3,64.9-3v0c-0.2,0-0.5-0.2-0.7-0.3c-0.2-0.2-0.4-0.4-0.6-0.7s-0.2-0.7-0.2-1.1
		c0-0.8,0.2-1.4,0.6-1.7c0.4-0.4,1.1-0.6,2-0.6c0.4,0,0.8,0,1.1,0c0.3,0,0.6,0.1,0.8,0.2v7.6h-1.3v-3.1h-0.3c-0.1,0-0.3,0.1-0.4,0.2
		c-0.2,0.2-0.3,0.4-0.4,0.7l-0.3,0.9c-0.1,0.5-0.3,0.8-0.5,1s-0.5,0.3-0.9,0.3C63.5,0.4,63.4,0.4,63.2,0.4z M66.5-3.6v-3h-0.6
		c-0.4,0-0.7,0.1-0.9,0.4c-0.2,0.2-0.3,0.6-0.3,1.1c0,0.5,0.1,0.9,0.3,1.2c0.2,0.2,0.5,0.4,1,0.4H66.5z"/>
	<path class="st2" d="M71.5-0.7c0.8-0.9,1.3-1.5,1.7-2c0.4-0.5,0.6-0.9,0.8-1.3c0.2-0.4,0.3-0.8,0.3-1.2c0-1-0.4-1.5-1.2-1.5h-1.5
		v-0.6c0.2-0.1,0.4-0.1,0.7-0.2c0.3,0,0.7-0.1,1-0.1c0.7,0,1.3,0.2,1.7,0.6s0.6,1,0.6,1.7c0,0.4-0.1,0.9-0.4,1.4s-0.5,1-0.9,1.4
		s-0.9,1.1-1.5,1.8h2.8v0.9h-4.1V-0.7z"/>
</g>
<path class="st3" d="M70.9-25.1c-12.1-11.6-31.8-11.6-43.9,0C15-13.5,15,5.2,27.1,16.8c0,0,21.9,20.5,21.9,44.2
	c0-23.7,21.9-44.2,21.9-44.2C83,5.2,83-13.5,70.9-25.1z"/>
</svg>
