<?xml version="1.0" encoding="utf-8"?>
<!-- Generator: Adobe Illustrator 19.0.0, SVG Export Plug-In . SVG Version: 6.00 Build 0)  -->
<svg version="1.1" id="Слой_1" xmlns="http://www.w3.org/2000/svg" xmlns:xlink="http://www.w3.org/1999/xlink" x="0px" y="0px"
	 viewBox="0 0 30 30" style="enable-background:new 0 0 30 30;" xml:space="preserve">
<style type="text/css">
	.st0{fill:#4D4E53;}
</style>
<g id="XMLID_3_">
	<path id="XMLID_17_" class="st0" d="M26.6,5.8c-3.6-1.4-7-2.2-10.3-2.4C10.1,3.2,4.9,4.8,3,5.8C0,7.4,0.1,9.3,0.1,9.3
		S6.8,8.9,8.7,9C8.4,7.9,8.6,7.4,9.5,7.3c4.9-1.2,9.2-0.2,9.2-0.2c2.5,0.2,2.5,1.8,2.5,1.8L30,9.7C30.1,8.4,29.7,7.1,26.6,5.8z"/>
	<path id="XMLID_16_" class="st0" d="M27.3,13c2.6-0.1,2.6-2.2,2.6-2.2s-6.6-0.8-9-0.9C21.1,12.6,24.7,13.1,27.3,13z"/>
	<path id="XMLID_15_" class="st0" d="M8.8,10.2l-8.6,0.5c0,0,0.8,2.4,2.8,2.3c1.9-0.1,4.3-0.2,4.3-0.2S9.2,12.5,8.8,10.2z"/>
	<path id="XMLID_4_" class="st0" d="M20.3,10.4l-1.1-0.1c0,0,0,0.1,0.1,0.9c0.1,0.8-0.7,0.6-0.7,0.6l-3.5,0l-3.5,0
		c0,0-0.8,0.2-0.7-0.6c0.1-0.8,0.1-0.9,0.1-0.9l-1.1,0.1c0,0-0.7,6-3.3,8.8c-6.4,6.4-0.3,7-0.3,7h5.2h7.1h5.2c0,0,6.1-0.6-0.3-7
		C21,16.4,20.3,10.4,20.3,10.4z M13.1,22.5h-1.9v-1.9h1.9V22.5z M13.1,19.7h-1.9v-1.9h1.9V19.7z M13.1,16.9h-1.9V15h1.9V16.9z
		 M16,22.5h-1.9v-1.9H16V22.5z M16,19.7h-1.9v-1.9H16V19.7z M16,16.9h-1.9V15H16V16.9z M19,22.5h-1.9v-1.9H19V22.5z M19,19.7h-1.9
		v-1.9H19V19.7z M19,16.9h-1.9V15H19V16.9z"/>
</g>
</svg>
