<?xml version="1.0" encoding="utf-8"?>
<!-- Generator: Adobe Illustrator 19.0.0, SVG Export Plug-In . SVG Version: 6.00 Build 0)  -->
<svg version="1.1" id="Слой_1" xmlns="http://www.w3.org/2000/svg" xmlns:xlink="http://www.w3.org/1999/xlink" x="0px" y="0px"
	 viewBox="0 0 353.9 386.6" style="enable-background:new 0 0 353.9 386.6;" xml:space="preserve">
<style type="text/css">
	.st0{stroke:#1E0E00;stroke-miterlimit:10;}
	.st1{fill:#FCD81D;stroke:#1E0E00;stroke-miterlimit:10;}
</style>
<path id="XMLID_2_" class="st0" d="M38.6,33.4C56.4,11.6,122.2,0,176.4,0c61.4,0,121.2,17.7,133.1,28.8
	c32,29.8,45.2,107.3,44.4,166.1c-0.9,69.6-20.4,144.8-40.7,163.6c-34.2,31.7-88.7,27.8-144.8,28.1c-49.8,0.3-104.4-4.4-127.7-30.2
	C-24.6,284-0.7,81.7,38.6,33.4z"/>
<path id="XMLID_5_" class="st1" d="M155.7,207.5c13.2,0,60.6-0.9,66.1,1.1c9.4,3.4,73.6,71.5,94.9,94.3
	c7.4-22.6,13.1-52.2,15.5-82.3c-24.8-27.4-103.2-113.4-111-115.2c-6-1.4-43.4-0.3-63.9-1c-33.3-1.1-38.4-60,2.6-60
	c13.2,0,60.6-0.9,66.1,1.1c9.5,3.4,82.5,82.7,105.4,107.7c-4.5-41.6-16.2-83.8-37-103.1c-10.4-9.7-63-25.3-117-25.3
	c-47.6,0-105.5,10.2-121.1,29.4c-20.4,25-36.1,97.3-33.7,165.4c0,1.2,0.1,2.5,0.2,3.7c20.9-20.2,98.9-95.1,108.6-98.6
	c5.5-2,56.9-0.1,70.1-0.1c40.9,0,35.8,58.8,2.6,60c-20.5,0.7-61.9-1.4-67.9,0c-8.3,2-88.2,79-105.6,95.8C36,303.7,45,323.9,58,338.3
	c1.2,1.3,2.4,2.5,3.7,3.6c18.5-17.6,55.6-52.1,64-55.1c5.5-2,56.9-1.1,70.1-1.1c40.9,0,35.8,58.8,2.6,60c-20.5,0.7-61.9-1.4-67.9,0
	c-5.6,1.3-13.6,9.4-18.9,15.6c18.5,2.9,39.1,3.7,58.8,3.6c46.1-0.3,91.1,2.7,121.3-19.8c-18.8-21.7-67.1-76.9-74.5-78.6
	c-6-1.4-43.4-0.3-63.9-1C119.9,264.3,114.8,207.5,155.7,207.5z"/>
</svg>
