<?xml version="1.0" encoding="utf-8"?>
<!-- Generator: Adobe Illustrator 19.0.0, SVG Export Plug-In . SVG Version: 6.00 Build 0)  -->
<svg version="1.1" id="Слой_1" xmlns="http://www.w3.org/2000/svg" xmlns:xlink="http://www.w3.org/1999/xlink" x="0px" y="0px"
	 viewBox="-101 465 930.8 204.9" style="enable-background:new -101 465 930.8 204.9;" xml:space="preserve">
<style type="text/css">
	.st0{stroke:#1E0E00;stroke-miterlimit:10;}
	.st1{fill:#FCD81D;}
	.st2{font-family:'DINAlternate-Bold';}
	.st3{font-size:31.4907px;}
	.st4{fill:#FCD81D;stroke:#FCD81D;stroke-width:3;stroke-miterlimit:10;}
	.st5{fill:none;stroke:#FCD81D;stroke-width:3;stroke-miterlimit:10;}
</style>
<g id="XMLID_33_">
	<path id="XMLID_2_" class="st0" d="M85.4,497.3c11,9,16.9,42.4,16.9,69.8c0,31.1-9,61.4-14.6,67.4C72.6,650.7,33.3,657.4,3.5,657
		c-35.3-0.5-73.4-10.3-82.9-20.6c-16.1-17.3-14.1-45-14.2-73.3c-0.1-25.2,2.3-52.9,15.3-64.7C-41.6,465.3,60.9,477.4,85.4,497.3z"/>
	<path id="XMLID_1_" class="st1" d="M78.9,502.9c10.2,8.3,15.6,39,15.6,64.2c0,28.6-8.3,56.5-13.4,62.1
		c-13.9,14.9-50,21.1-77.5,20.7c-32.5-0.4-67.5-9.5-76.3-19c-14.8-16-12.9-41.4-13.1-67.5c-0.1-23.2,2-48.7,14.1-59.6
		C-38,473.4,56.4,484.6,78.9,502.9z"/>
	<path id="XMLID_3_" class="st0" d="M73,508.1c9.4,7.6,14.3,35.9,14.3,59.1c0,26.3-7.6,52-12.3,57.1C62.2,638,29,643.7,3.7,643.4
		c-29.9-0.4-62.1-8.7-70.2-17.5c-13.6-14.7-11.9-38.1-12.1-62.1c-0.1-21.4,1.9-44.8,13-54.8C-34.6,480.9,52.3,491.2,73,508.1z"/>
</g>
<g id="XMLID_32_">
	<path id="XMLID_6_" class="st1" d="M-26,547.2c-0.8-2.3-18-22.9-28.4-34h-20.4c0.8,0.9-0.9,6.4,0,7.3c10.4,11,25,26.5,25.5,28.5
		c0.6,2.4-0.3,18.5,0,26.5c0.4,13,23.4,15,23.4-1C-25.9,569.4-25.2,549.3-26,547.2z"/>
	<path id="XMLID_5_" class="st1" d="M6.2,584.9c-0.8,2.3-18,22.9-28.4,34h-27.3c0.8-0.9,8.9-9.1,9.7-10.1
		c10.4-11,22.1-23.7,22.6-25.7c0.6-2.4-0.3-18.5,0-26.5c0.4-13,23.4-15,23.4,1C6.3,562.7,7,582.8,6.2,584.9z"/>
	<path id="XMLID_7_" class="st1" d="M38.8,547.2c-0.8-2.3-18-22.9-28.4-34h-27.3c0.8,0.9,8.9,9.1,9.7,10.1
		c10.4,11,22.1,23.7,22.6,25.7c0.6,2.4-0.3,18.5,0,26.5c0.4,13,23.4,15,23.4-1C38.8,569.4,39.6,549.3,38.8,547.2z"/>
	<path id="XMLID_4_" class="st1" d="M71.3,584.9c-0.8,2.3-18,22.9-28.4,34H15.6c0.8-0.9,8.9-9.1,9.7-10.1
		c10.4-11,22.1-23.7,22.6-25.7c0.6-2.4-0.3-18.5,0-26.5c0.4-13,23.4-15,23.4,1C71.4,562.7,72.1,582.8,71.3,584.9z"/>
</g>
<g id="XMLID_34_">
	<path id="XMLID_71_" class="st1" d="M189.8,509.3v20.4H174v81.5h-26.5v-81.6h-15.7v-20.3H189.8z"/>
	<path id="XMLID_68_" class="st1" d="M203.1,541.6l-0.4,6.1c1.9-2.5,4-4.3,6.2-5.6c2.3-1.2,4.8-1.8,7.4-1.8c3.3,0,6.1,0.9,8.5,2.6
		c2.4,1.8,3.9,3.8,4.5,6.1c0.6,2.3,0.9,6.2,0.9,11.7V590c0,6.3-0.4,10.8-1.1,13.5c-0.8,2.7-2.3,4.8-4.6,6.4
		c-2.3,1.6-5.1,2.4-8.4,2.4c-2.6,0-5.1-0.6-7.3-1.8c-2.2-1.2-4.3-3-6.1-5.5v16h-21.2v-79.4H203.1z M209.1,561.8
		c0-4.3-0.2-6.9-0.5-7.8c-0.3-0.9-1.2-1.4-2.6-1.4s-2.3,0.5-2.7,1.6c-0.4,1-0.6,3.6-0.6,7.6v28.8c0,4.2,0.2,6.8,0.6,7.9
		c0.4,1,1.3,1.6,2.7,1.6c1.4,0,2.2-0.5,2.5-1.4c0.3-1,0.5-3.3,0.5-7v-29.9H209.1z"/>
	<path id="XMLID_65_" class="st1" d="M256.2,568.5h-19.9v-4.7c0-5.4,0.6-9.5,1.9-12.5c1.2-2.9,3.7-5.5,7.5-7.7
		c3.7-2.2,8.6-3.4,14.6-3.4c7.2,0,12.6,1.3,16.2,3.8s5.8,5.6,6.6,9.3c0.7,3.7,1.1,11.3,1.1,22.8V611h-20.6v-6c-1.3,2.5-3,4.4-5,5.6
		s-4.5,1.9-7.3,1.9c-3.7,0-7.1-1-10.2-3.1c-3.1-2.1-4.6-6.6-4.6-13.7V590c0-5.2,0.8-8.8,2.5-10.6c1.6-1.9,5.7-4.1,12.2-6.6
		c7-2.7,10.7-4.6,11.2-5.5s0.7-2.9,0.7-5.8c0-3.6-0.3-6-0.8-7.1c-0.5-1.1-1.4-1.7-2.7-1.7c-1.4,0-2.3,0.5-2.7,1.4
		c-0.4,0.9-0.5,3.3-0.5,7.2v7.2H256.2z M263,578.1c-3.4,2.5-5.4,4.6-5.9,6.2c-0.5,1.6-0.8,4.1-0.8,7.2c0,3.6,0.2,5.9,0.7,7
		c0.5,1.1,1.4,1.6,2.8,1.6c1.3,0,2.2-0.4,2.6-1.2c0.4-0.8,0.6-3,0.6-6.5L263,578.1L263,578.1z"/>
	<path id="XMLID_63_" class="st1" d="M312.4,541.6v27.1c4.4,0,6.7-2.4,6.7-7.1v-11.9c0-4.8,0.8-7.5,2.4-8.2h20.4
		c-1.6,2.3-2.4,5.6-2.4,10.1v9.7c0,3.4-1.4,6.2-4.1,8.4c-1,0.8-3.1,2-6.4,3.6c-2.1,1-4.5,1.6-7.1,1.6c1.2,0.2,3.5,0.8,6.9,1.7
		c7.2,2.3,10.9,6.3,10.9,12.1V601c0,4.5,0.8,7.8,2.4,10.1h-20.4c-1.6-2.1-2.4-4.9-2.4-8.2v-14.7c0-4.7-2.3-7.1-6.8-7.1V611h-20.9
		v-69.4H312.4z"/>
	<path id="XMLID_61_" class="st1" d="M388.3,541.6v14.6h-12.1v55h-21.1v-55h-12.2v-14.6H388.3z"/>
	<path id="XMLID_58_" class="st1" d="M440.5,566v17c0,6.3-0.3,10.8-0.9,13.8c-0.6,2.9-2,5.6-4,8.2c-2.1,2.5-4.7,4.4-7.9,5.6
		s-6.9,1.8-11.1,1.8c-4.7,0-8.7-0.5-11.9-1.5s-5.8-2.6-7.6-4.7c-1.8-2.1-3.1-4.6-3.9-7.6s-1.2-7.4-1.2-13.3v-17.8
		c0-6.5,0.7-11.5,2.1-15.2c1.4-3.6,3.9-6.6,7.6-8.8c3.6-2.2,8.3-3.3,14-3.3c4.8,0,8.8,0.7,12.2,2.1c3.4,1.4,6,3.3,7.9,5.5
		s3.1,4.6,3.8,7C440.1,557.4,440.5,561.1,440.5,566z M419.3,560.8c0-3.6-0.2-5.8-0.6-6.7c-0.4-0.9-1.2-1.4-2.5-1.4s-2.1,0.5-2.5,1.4
		c-0.4,0.9-0.6,3.2-0.6,6.7v31.4c0,3.3,0.2,5.4,0.6,6.4s1.2,1.5,2.5,1.5s2.1-0.5,2.5-1.4c0.4-0.9,0.6-2.9,0.6-5.9V560.8z"/>
	<path id="XMLID_54_" class="st1" d="M496.6,592.8c0,7.1-1.5,11.9-4.6,14.5c-3.1,2.6-9.8,3.9-20.2,3.9h-24.3v-69.6h25
		c8.6,0,14.5,1.4,17.7,4.2s4.9,7.7,4.9,14.5c0,7.9-4.1,12.3-12.3,13.4c4.3,0.7,7.6,2.4,10.1,5c2.5,2.6,3.7,6,3.7,9.9L496.6,592.8
		L496.6,592.8z M468.5,567.4c3.2,0,5.2-0.4,5.9-1.2c0.7-0.8,1.1-2.4,1.1-4.8c0-2-0.4-3.4-1.2-4.1c-0.8-0.8-2.7-1.2-5.8-1.2V567.4z
		 M475.5,589.5v-2.4c0-3-0.4-4.9-1.2-5.6c-0.8-0.8-2.7-1.1-5.8-1.1v16.1c2.8,0,4.7-0.4,5.6-1.2C475,594.5,475.5,592.6,475.5,589.5z"
		/>
	<path id="XMLID_52_" class="st1" d="M555.2,611.2h-18.5v-37.6L522,611.2h-19.3v-69.6h18.5v37.3l14.5-37.3h19.6L555.2,611.2
		L555.2,611.2z"/>
	<path id="XMLID_50_" class="st1" d="M611,611.2h-21.1V592c-2.7,2.5-6.9,3.8-12.7,3.8c-4,0-7.3-0.7-9.8-2.2c-2.5-1.4-4-3.5-4.6-6.2
		c-0.6-2.7-0.8-7.1-0.8-13.2v-32.6h21.2v33.6c0,3.7,0.2,6.2,0.5,7.5c0.3,1.3,1.3,1.9,2.8,1.9c1.3,0,2.1-0.6,2.6-1.7
		c0.5-1.2,0.7-3.5,0.7-7v-34.3H611V611.2z"/>
	<path id="XMLID_48_" class="st1" d="M639,541.6v27.1c4.4,0,6.7-2.4,6.7-7.1v-11.9c0-4.8,0.8-7.5,2.4-8.2h20.4
		c-1.6,2.3-2.4,5.6-2.4,10.1v9.7c0,3.4-1.4,6.2-4.1,8.4c-1,0.8-3.1,2-6.4,3.6c-2.1,1-4.5,1.6-7.1,1.6c1.2,0.2,3.5,0.8,6.9,1.7
		c7.2,2.3,10.9,6.3,10.9,12.1V601c0,4.5,0.8,7.8,2.4,10.1h-20.4c-1.6-2.1-2.4-4.9-2.4-8.2v-14.7c0-4.7-2.3-7.1-6.8-7.1V611h-20.9
		v-69.4H639z"/>
	<path id="XMLID_45_" class="st1" d="M720.9,566v17c0,6.3-0.3,10.8-0.9,13.8s-2,5.6-4,8.2c-2,2.6-4.7,4.4-7.9,5.6s-6.9,1.8-11.1,1.8
		c-4.7,0-8.7-0.5-11.9-1.5s-5.8-2.6-7.6-4.7c-1.8-2.1-3.1-4.6-3.9-7.6c-0.8-3-1.2-7.4-1.2-13.3v-17.8c0-6.5,0.7-11.5,2.1-15.2
		c1.4-3.6,3.9-6.6,7.6-8.8c3.6-2.2,8.3-3.3,14-3.3c4.8,0,8.8,0.7,12.2,2.1c3.4,1.4,6,3.3,7.9,5.5s3.1,4.6,3.8,7
		C720.6,557.4,720.9,561.1,720.9,566z M699.7,560.8c0-3.6-0.2-5.8-0.6-6.7c-0.4-0.9-1.2-1.4-2.5-1.4s-2.1,0.5-2.5,1.4
		c-0.4,0.9-0.6,3.2-0.6,6.7v31.4c0,3.3,0.2,5.4,0.6,6.4s1.2,1.5,2.5,1.5s2.1-0.5,2.5-1.4c0.4-0.9,0.6-2.9,0.6-5.9V560.8z"/>
	<path id="XMLID_41_" class="st1" d="M823.1,561.3c0,6.7-0.3,11.5-0.9,14.4c-0.9,4.1-2.7,7.7-5.6,11c-4.4,5.1-12.8,7.6-25.1,7.6
		h-4.7v16.9h-26.6v-16.9h-4.1c-12.3,0-20.7-2.5-25.2-7.6c-2.9-3.3-4.7-6.9-5.6-11c-0.6-2.9-0.9-7.7-0.9-14.4v-1.8
		c0-6.7,0.3-11.5,0.9-14.4c0.9-4.1,2.7-7.7,5.6-11c4.4-5,12.8-7.4,25.2-7.4c0.9,0,2.3-0.1,4.1-0.2v-17.3h26.6v17.2
		c2.1,0.1,3.7,0.2,4.7,0.2c12.4,0,20.7,2.5,25.1,7.4c2.9,3.3,4.7,6.9,5.6,11c0.6,2.9,0.9,7.7,0.9,14.4V561.3z M760.2,578.4v-36.1
		H758c-2,0-3.6,1-5,3.1c-1.4,2.1-2,4.9-2,8.4V567c0,3.4,0.7,6.2,2,8.3c1.4,2.1,3,3.1,5,3.1H760.2z M796.6,567v-13.2
		c0-3.5-0.7-6.3-2-8.4c-1.4-2.1-3.1-3.1-5.1-3.1h-2.7v36.1h2.7c2,0,3.7-1,5.1-3.1C795.9,573.2,796.6,570.4,796.6,567z"/>
</g>
<g id="XMLID_28_">
	<text id="XMLID_31_" transform="matrix(1 0 0 1 306.4557 651.5755)" class="st1 st2 st3">АРЕНДА СПЕЦТЕХНИКИ</text>
	<line id="XMLID_30_" class="st4" x1="130.2" y1="640.6" x2="299.7" y2="640.6"/>
	<line id="XMLID_29_" class="st5" x1="645.4" y1="640.6" x2="823.1" y2="640.6"/>
</g>
</svg>
