<?xml version="1.0" encoding="utf-8"?>
<!-- Generator: Adobe Illustrator 19.0.0, SVG Export Plug-In . SVG Version: 6.00 Build 0)  -->
<svg version="1.1" id="Слой_1" xmlns="http://www.w3.org/2000/svg" xmlns:xlink="http://www.w3.org/1999/xlink" x="0px" y="0px"
	 viewBox="448 -87.9 930.8 204.9" style="enable-background:new 448 -87.9 930.8 204.9;" xml:space="preserve">
<style type="text/css">
	.st0{stroke:#1E0E00;stroke-miterlimit:10;}
	.st1{fill:#FCD81D;}
	.st2{font-family:'DINAlternate-Bold';}
	.st3{font-size:31.4907px;}
	.st4{stroke:#000000;stroke-width:3;stroke-miterlimit:10;}
</style>
<g id="XMLID_33_">
	<path id="XMLID_2_" class="st0" d="M627-55.5c11,9,16.9,42.4,16.9,69.8c0,31.1-9,61.4-14.6,67.4c-15.1,16.2-54.4,22.9-84.2,22.5
		c-35.3-0.5-73.4-10.3-82.9-20.6c-16.1-17.3-14.1-45-14.2-73.3c-0.1-25.2,2.3-52.9,15.3-64.7C500-87.5,602.5-75.4,627-55.5z"/>
	<path id="XMLID_1_" class="st1" d="M620.5-49.9c10.2,8.3,15.6,39,15.6,64.2c0,28.6-8.3,56.5-13.4,62.1
		c-13.9,14.9-50,21.1-77.5,20.7c-32.5-0.4-67.5-9.5-76.3-19c-14.8-16-12.9-41.4-13.1-67.5c-0.1-23.2,2-48.7,14.1-59.6
		C503.6-79.4,598-68.2,620.5-49.9z"/>
	<path id="XMLID_3_" class="st0" d="M614.6-44.7c9.4,7.6,14.3,35.9,14.3,59.1c0,26.3-7.6,52-12.3,57.1c-12.8,13.7-46,19.4-71.3,19.1
		c-29.9-0.4-62.1-8.7-70.2-17.5C461.5,58.4,463.2,35,463,11c-0.1-21.4,1.9-44.8,13-54.8C507-71.9,593.9-61.6,614.6-44.7z"/>
</g>
<g id="XMLID_32_">
	<path id="XMLID_6_" class="st1" d="M515.6-5.6c-0.8-2.3-18-22.9-28.4-34h-20.4c0.8,0.9-0.9,6.4,0,7.3c10.4,11,25,26.5,25.5,28.5
		c0.6,2.4-0.3,18.5,0,26.5c0.4,13,23.4,15,23.4-1C515.7,16.6,516.4-3.5,515.6-5.6z"/>
	<path id="XMLID_5_" class="st1" d="M547.8,32.1c-0.8,2.3-18,22.9-28.4,34h-27.3c0.8-0.9,8.9-9.1,9.7-10.1
		c10.4-11,22.1-23.7,22.6-25.7c0.6-2.4-0.3-18.5,0-26.5c0.4-13,23.4-15,23.4,1C547.9,9.9,548.6,30,547.8,32.1z"/>
	<path id="XMLID_7_" class="st1" d="M580.4-5.6c-0.8-2.3-18-22.9-28.4-34h-27.3c0.8,0.9,8.9,9.1,9.7,10.1
		c10.4,11,22.1,23.7,22.6,25.7c0.6,2.4-0.3,18.5,0,26.5c0.4,13,23.4,15,23.4-1C580.4,16.6,581.2-3.5,580.4-5.6z"/>
	<path id="XMLID_4_" class="st1" d="M612.9,32.1c-0.8,2.3-18,22.9-28.4,34h-27.3c0.8-0.9,8.9-9.1,9.7-10.1
		c10.4-11,22.1-23.7,22.6-25.7c0.6-2.4-0.3-18.5,0-26.5c0.4-13,23.4-15,23.4,1C613,9.9,613.7,30,612.9,32.1z"/>
</g>
<g id="XMLID_34_">
	<path id="XMLID_71_" d="M731.4-43.5v20.4h-15.8v81.5h-26.5v-81.6h-15.7v-20.3L731.4-43.5L731.4-43.5z"/>
	<path id="XMLID_68_" d="M744.7-11.2l-0.4,6.1c1.9-2.5,4-4.3,6.2-5.6c2.3-1.2,4.8-1.8,7.4-1.8c3.3,0,6.1,0.9,8.5,2.6
		c2.4,1.8,3.9,3.8,4.5,6.1c0.6,2.3,0.9,6.2,0.9,11.7v29.3c0,6.3-0.4,10.8-1.1,13.5c-0.8,2.7-2.3,4.8-4.6,6.4
		c-2.3,1.6-5.1,2.4-8.4,2.4c-2.6,0-5.1-0.6-7.3-1.8s-4.3-3-6.1-5.5v16h-21.2v-79.4L744.7-11.2L744.7-11.2z M750.7,9
		c0-4.3-0.2-6.9-0.5-7.8c-0.3-0.9-1.2-1.4-2.6-1.4s-2.3,0.5-2.7,1.6c-0.4,1-0.6,3.6-0.6,7.6v28.8c0,4.2,0.2,6.8,0.6,7.9
		c0.4,1,1.3,1.6,2.7,1.6c1.4,0,2.2-0.5,2.5-1.4c0.3-1,0.5-3.3,0.5-7L750.7,9L750.7,9L750.7,9z"/>
	<path id="XMLID_65_" d="M797.8,15.7h-19.9V11c0-5.4,0.6-9.5,1.9-12.5c1.2-2.9,3.7-5.5,7.5-7.7c3.7-2.2,8.6-3.4,14.6-3.4
		c7.2,0,12.6,1.3,16.2,3.8c3.6,2.5,5.8,5.6,6.6,9.3c0.7,3.7,1.1,11.3,1.1,22.8v34.9h-20.6v-6c-1.3,2.5-3,4.4-5,5.6s-4.5,1.9-7.3,1.9
		c-3.7,0-7.1-1-10.2-3.1c-3.1-2.1-4.6-6.6-4.6-13.7v-5.7c0-5.2,0.8-8.8,2.5-10.6c1.6-1.9,5.7-4.1,12.2-6.6c7-2.7,10.7-4.6,11.2-5.5
		s0.7-2.9,0.7-5.8c0-3.6-0.3-6-0.8-7.1s-1.4-1.7-2.7-1.7c-1.4,0-2.3,0.5-2.7,1.4S798,4.6,798,8.5v7.2L797.8,15.7L797.8,15.7z
		 M804.6,25.3c-3.4,2.5-5.4,4.6-5.9,6.2c-0.5,1.6-0.8,4.1-0.8,7.2c0,3.6,0.2,5.9,0.7,7s1.4,1.6,2.8,1.6c1.3,0,2.2-0.4,2.6-1.2
		c0.4-0.8,0.6-3,0.6-6.5V25.3L804.6,25.3z"/>
	<path id="XMLID_63_" d="M854-11.2v27.1c4.4,0,6.7-2.4,6.7-7.1V-3.1c0-4.8,0.8-7.5,2.4-8.2h20.4c-1.6,2.3-2.4,5.6-2.4,10.1v9.7
		c0,3.4-1.4,6.2-4.1,8.4c-1,0.8-3.1,2-6.4,3.6c-2.1,1-4.5,1.6-7.1,1.6c1.2,0.2,3.5,0.8,6.9,1.7c7.2,2.3,10.9,6.3,10.9,12.1v12.3
		c0,4.5,0.8,7.8,2.4,10.1h-20.4c-1.6-2.1-2.4-4.9-2.4-8.2V35.4c0-4.7-2.3-7.1-6.8-7.1v29.9h-20.9v-69.4H854z"/>
	<path id="XMLID_61_" d="M929.9-11.2V3.4h-12.1v55h-21.1v-55h-12.2v-14.6H929.9z"/>
	<path id="XMLID_58_" d="M982.1,13.2v17c0,6.3-0.3,10.8-0.9,13.8c-0.6,2.9-2,5.6-4,8.2c-2.1,2.5-4.7,4.4-7.9,5.6
		c-3.2,1.2-6.9,1.8-11.1,1.8c-4.7,0-8.7-0.5-11.9-1.5c-3.2-1-5.8-2.6-7.6-4.7c-1.8-2.1-3.1-4.6-3.9-7.6s-1.2-7.4-1.2-13.3V14.7
		c0-6.5,0.7-11.5,2.1-15.2c1.4-3.6,3.9-6.6,7.6-8.8c3.6-2.2,8.3-3.3,14-3.3c4.8,0,8.8,0.7,12.2,2.1c3.4,1.4,6,3.3,7.9,5.5
		c1.9,2.2,3.1,4.6,3.8,7C981.7,4.6,982.1,8.3,982.1,13.2z M960.9,8c0-3.6-0.2-5.8-0.6-6.7c-0.4-0.9-1.2-1.4-2.5-1.4
		s-2.1,0.5-2.5,1.4c-0.4,0.9-0.6,3.2-0.6,6.7v31.4c0,3.3,0.2,5.4,0.6,6.4c0.4,1,1.2,1.5,2.5,1.5s2.1-0.5,2.5-1.4
		c0.4-0.9,0.6-2.9,0.6-5.9V8z"/>
	<path id="XMLID_54_" d="M1038.2,40c0,7.1-1.5,11.9-4.6,14.5s-9.8,3.9-20.2,3.9h-24.3v-69.6h25c8.6,0,14.5,1.4,17.7,4.2
		c3.2,2.8,4.9,7.7,4.9,14.5c0,7.9-4.1,12.3-12.3,13.4c4.3,0.7,7.6,2.4,10.1,5s3.7,6,3.7,9.9V40L1038.2,40z M1010.1,14.6
		c3.2,0,5.2-0.4,5.9-1.2c0.7-0.8,1.1-2.4,1.1-4.8c0-2-0.4-3.4-1.2-4.1c-0.8-0.8-2.7-1.2-5.8-1.2V14.6z M1017.1,36.7v-2.4
		c0-3-0.4-4.9-1.2-5.6c-0.8-0.8-2.7-1.1-5.8-1.1v16.1c2.8,0,4.7-0.4,5.6-1.2C1016.6,41.7,1017.1,39.8,1017.1,36.7z"/>
	<path id="XMLID_52_" d="M1096.8,58.4h-18.5V20.8l-14.7,37.6h-19.3v-69.6h18.5v37.3l14.5-37.3h19.6L1096.8,58.4L1096.8,58.4z"/>
	<path id="XMLID_50_" d="M1152.6,58.4h-21.1V39.2c-2.7,2.5-6.9,3.8-12.7,3.8c-4,0-7.3-0.7-9.8-2.2c-2.5-1.4-4-3.5-4.6-6.2
		s-0.8-7.1-0.8-13.2v-32.6h21.2v33.6c0,3.7,0.2,6.2,0.5,7.5c0.3,1.3,1.3,1.9,2.8,1.9c1.3,0,2.1-0.6,2.6-1.7c0.5-1.2,0.7-3.5,0.7-7
		v-34.3h21.2V58.4z"/>
	<path id="XMLID_48_" d="M1180.6-11.2v27.1c4.4,0,6.7-2.4,6.7-7.1V-3.1c0-4.8,0.8-7.5,2.4-8.2h20.4c-1.6,2.3-2.4,5.6-2.4,10.1v9.7
		c0,3.4-1.4,6.2-4.1,8.4c-1,0.8-3.1,2-6.4,3.6c-2.1,1-4.5,1.6-7.1,1.6c1.2,0.2,3.5,0.8,6.9,1.7c7.2,2.3,10.9,6.3,10.9,12.1v12.3
		c0,4.5,0.8,7.8,2.4,10.1h-20.4c-1.6-2.1-2.4-4.9-2.4-8.2V35.4c0-4.7-2.3-7.1-6.8-7.1v29.9h-20.9v-69.4H1180.6z"/>
	<path id="XMLID_45_" d="M1262.5,13.2v17c0,6.3-0.3,10.8-0.9,13.8c-0.6,3-2,5.6-4,8.2c-2,2.6-4.7,4.4-7.9,5.6
		c-3.2,1.2-6.9,1.8-11.1,1.8c-4.7,0-8.7-0.5-11.9-1.5c-3.2-1-5.8-2.6-7.6-4.7c-1.8-2.1-3.1-4.6-3.9-7.6s-1.2-7.4-1.2-13.3V14.7
		c0-6.5,0.7-11.5,2.1-15.2c1.4-3.6,3.9-6.6,7.6-8.8c3.6-2.2,8.3-3.3,14-3.3c4.8,0,8.8,0.7,12.2,2.1c3.4,1.4,6,3.3,7.9,5.5
		s3.1,4.6,3.8,7C1262.2,4.6,1262.5,8.3,1262.5,13.2z M1241.3,8c0-3.6-0.2-5.8-0.6-6.7s-1.2-1.4-2.5-1.4c-1.3,0-2.1,0.5-2.5,1.4
		s-0.6,3.2-0.6,6.7v31.4c0,3.3,0.2,5.4,0.6,6.4c0.4,1,1.2,1.5,2.5,1.5c1.3,0,2.1-0.5,2.5-1.4s0.6-2.9,0.6-5.9V8z"/>
	<path id="XMLID_41_" d="M1364.7,8.5c0,6.7-0.3,11.5-0.9,14.4c-0.9,4.1-2.7,7.7-5.6,11c-4.4,5.1-12.8,7.6-25.1,7.6h-4.7v16.9h-26.6
		V41.5h-4.1c-12.3,0-20.7-2.5-25.2-7.6c-2.9-3.3-4.7-6.9-5.6-11c-0.6-2.9-0.9-7.7-0.9-14.4V6.7c0-6.7,0.3-11.5,0.9-14.4
		c0.9-4.1,2.7-7.7,5.6-11c4.4-5,12.8-7.4,25.2-7.4c0.9,0,2.3-0.1,4.1-0.2v-17.3h26.6v17.2c2.1,0.1,3.7,0.2,4.7,0.2
		c12.4,0,20.7,2.5,25.1,7.4c2.9,3.3,4.7,6.9,5.6,11c0.6,2.9,0.9,7.7,0.9,14.4V8.5z M1301.8,25.6v-36.1h-2.2c-2,0-3.6,1-5,3.1
		s-2,4.9-2,8.4v13.2c0,3.4,0.7,6.2,2,8.3c1.4,2.1,3,3.1,5,3.1L1301.8,25.6L1301.8,25.6z M1338.2,14.2V1c0-3.5-0.7-6.3-2-8.4
		c-1.4-2.1-3.1-3.1-5.1-3.1h-2.7v36.1h2.7c2,0,3.7-1,5.1-3.1C1337.5,20.4,1338.2,17.6,1338.2,14.2z"/>
</g>
<g id="XMLID_28_">
	<text id="XMLID_31_" transform="matrix(1 0 0 1 848.088 98.7341)" class="st2 st3">АРЕНДА СПЕЦТЕХНИКИ</text>
	<line id="XMLID_30_" class="st4" x1="671.8" y1="87.8" x2="841.3" y2="87.8"/>
	<line id="XMLID_29_" class="st4" x1="1187" y1="87.8" x2="1364.7" y2="87.8"/>
</g>
</svg>
