<?xml version="1.0" encoding="utf-8"?>
<!-- Generator: Adobe Illustrator 19.0.0, SVG Export Plug-In . SVG Version: 6.00 Build 0)  -->
<svg version="1.1" id="Слой_1" xmlns="http://www.w3.org/2000/svg" xmlns:xlink="http://www.w3.org/1999/xlink" x="0px" y="0px"
	 viewBox="0 0 20 20" style="enable-background:new 0 0 20 20;" xml:space="preserve">
<style type="text/css">
	.st0{fill:#424242;}
</style>
<g id="XMLID_11_">
	<g id="XMLID_16_">
		<path id="XMLID_17_" class="st0" d="M11.9,19.9C11.9,19.9,11.9,19.9,11.9,19.9c-0.4,0-0.8-0.2-1.1-0.6l-1.1-1.7c0,0-0.1,0-0.1,0
			l-1.3,1.5c-0.4,0.4-1,0.6-1.5,0.3l-2.1-1c-0.5-0.2-0.8-0.8-0.7-1.4l0.4-2c0,0,0,0-0.1-0.1l-2.1,0.2c-0.5,0-1-0.3-1.2-0.8l-0.8-2.2
			c-0.2-0.5,0-1.2,0.5-1.5l1.7-1.1c0,0,0-0.1,0-0.1L0.8,8.3c-0.4-0.4-0.6-1-0.3-1.5l1-2.1C1.7,4.2,2.3,3.9,2.8,4l2,0.4
			c0,0,0,0,0.1-0.1l-0.2-2C4.6,1.7,5,1.2,5.5,1l2.2-0.8c0.5-0.2,1.2,0,1.5,0.5l1.1,1.7c0,0,0.1,0,0.1,0l1.3-1.5
			c0.4-0.4,1-0.6,1.5-0.3l2.1,1c0.5,0.2,0.8,0.8,0.7,1.4l-0.4,2c0,0,0,0,0.1,0.1l2.1-0.2c0.5,0,1,0.3,1.2,0.8l0.8,2.2
			c0.2,0.5,0,1.2-0.5,1.5l-1.7,1.1c0,0,0,0.1,0,0.1l1.5,1.3c0.4,0.4,0.6,1,0.3,1.5l-1,2.1c-0.2,0.5-0.8,0.8-1.4,0.7l-2-0.4
			c0,0,0,0-0.1,0.1l0.2,2c0.1,0.6-0.3,1.1-0.8,1.3l-2.2,0.8C12.1,19.9,12,19.9,11.9,19.9z M9.4,15.9l0.1,0c0.2,0,0.3,0,0.5,0
			c0.4,0,0.8,0.2,1,0.6l1,1.6l1.5-0.5l-0.2-1.9c0-0.4,0.1-0.8,0.4-1.1c0.1-0.1,0.2-0.2,0.4-0.3c0.3-0.3,0.7-0.4,1.1-0.3l1.8,0.4
			l0.7-1.4l-1.4-1.2c-0.3-0.3-0.5-0.7-0.5-1.1c0-0.2,0-0.3,0-0.5c0-0.4,0.2-0.8,0.6-1l1.6-1l-0.5-1.5l-2,0.2c-0.4,0-0.7-0.2-1-0.5
			c-0.1-0.1-0.2-0.3-0.3-0.4c-0.3-0.3-0.4-0.7-0.3-1.1l0.4-1.8l-1.4-0.7l-1.2,1.4c-0.2,0.3-0.6,0.5-1,0.5l-0.1,0c-0.2,0-0.3,0-0.5,0
			c-0.4,0-0.8-0.2-1-0.6L8,2L6.5,2.5l0.2,1.9c0,0.4-0.1,0.8-0.4,1.1C6.1,5.6,6,5.7,5.8,5.8C5.5,6.1,5.1,6.2,4.7,6.1L2.9,5.8L2.2,7.2
			l1.4,1.2C4,8.6,4.1,9.1,4.1,9.5c0,0.2,0,0.3,0,0.5c0,0.4-0.2,0.8-0.6,1L2,12l0.5,1.5l2-0.2c0.4,0,0.7,0.2,1,0.4
			c0.1,0.1,0.2,0.3,0.3,0.4c0.3,0.3,0.4,0.7,0.3,1.1l-0.4,1.8l1.4,0.7l1.2-1.4C8.6,16.1,9,15.9,9.4,15.9z"/>
	</g>
	<g id="XMLID_12_">
		<path id="XMLID_13_" class="st0" d="M10,13.6c-1.5,0-2.9-1-3.4-2.4c-0.3-0.9-0.3-1.9,0.1-2.8c0.4-0.9,1.1-1.5,2.1-1.9
			C9.2,6.4,9.6,6.4,10,6.4c1.5,0,2.9,1,3.4,2.4c0.7,1.9-0.3,4-2.2,4.7C10.8,13.6,10.4,13.6,10,13.6z M10,8.1c-0.2,0-0.4,0-0.6,0.1
			c-0.5,0.2-0.9,0.5-1.1,1c-0.2,0.5-0.2,1-0.1,1.4c0.3,0.7,1,1.2,1.8,1.2c0.2,0,0.4,0,0.6-0.1c1-0.4,1.5-1.4,1.1-2.4
			C11.5,8.6,10.8,8.1,10,8.1z"/>
	</g>
</g>
</svg>
