<?xml version="1.0" encoding="utf-8"?>
<!-- Generator: Adobe Illustrator 19.0.0, SVG Export Plug-In . SVG Version: 6.00 Build 0)  -->
<svg version="1.1" id="Слой_1" xmlns="http://www.w3.org/2000/svg" xmlns:xlink="http://www.w3.org/1999/xlink" x="0px" y="0px"
	 viewBox="12 -55.7 57.6 141.7" style="enable-background:new 12 -55.7 57.6 141.7;" xml:space="preserve">
<style type="text/css">
	.st0{fill:#DE1B1B;}
</style>
<g id="XMLID_5_">
	<path id="XMLID_3_" class="st0" d="M52-6.5c1.6,0,4.1-0.2,6.1-1.1c7-3,7.1-4.8,7.1-4.8c1.5-4.2,2.5-10.9,2.5-18.5s-1-14.3-2.5-18.5
		c0,0-3.2-6.1-10.3-6.1c0,0,0,0-0.1,0l0,0l0,0c-1,0-1.9,0-2.8,0.1V-6.5z"/>
	<path id="XMLID_2_" class="st0" d="M65.2,79.9c1.5-4.2,2.5-10.9,2.5-18.5s-1-14.3-2.5-18.5c0,0,0-1.9-7.1-4.8
		c-2-0.9-4.5-1.1-6.1-1.1v48.9c0.9,0.1,1.8,0.1,2.8,0.1l0,0l0,0c0.1,0,0.1,0,0.1,0C62,86,65.2,79.9,65.2,79.9z"/>
	<path id="XMLID_1_" class="st0" d="M45.9,37.9c-1.8,0.3-3.5-0.5-4.9-2c-4.5-4.5-7.1-15.1-7.1-20.7c0-7.4,4.7-23.8,12.1-22.7
		c0.4,0.1,0.8,0.2,1.2,0.3v-47.6c-9,1.9-13.2,6.3-13.2,6.3S13.5-29.3,13.5,15.2c0,42.2,18.3,61.6,20.2,63.5c0.1,0.1,0.2,0.2,0.2,0.2
		s0,0,0.1,0.1c0.6,0.6,4.8,4.6,13.2,6.3V37.7C46.7,37.7,46.3,37.8,45.9,37.9z"/>
</g>
</svg>
