<?xml version="1.0" encoding="utf-8"?>
<!-- Generator: Adobe Illustrator 19.0.0, SVG Export Plug-In . SVG Version: 6.00 Build 0)  -->
<svg version="1.1" id="Слой_1" xmlns="http://www.w3.org/2000/svg" xmlns:xlink="http://www.w3.org/1999/xlink" x="0px" y="0px"
	 viewBox="0 0 81.4 141.7" style="enable-background:new 0 0 81.4 141.7;" xml:space="preserve">
<style type="text/css">
	.st0{fill:#3A4145;}
</style>
<path id="XMLID_2_" class="st0" d="M70.4,13H24V7.1C24,3.2,20.8,0,16.9,0c-3.9,0-7.1,3.2-7.1,7.1v6C4.3,13.8,0,18.4,0,24v106.7
	c0,6.1,5,11,11,11h59.4c6.1,0,11-5,11-11V24C81.4,18,76.5,13,70.4,13z M30.4,104.8c0,0.6-0.9,1.2-2.1,1.2H11.4
	c-1.1,0-2.1-0.5-2.1-1.2V94.7c0-0.6,0.9-1.2,2.1-1.2h16.9c1.1,0,2.1,0.5,2.1,1.2V104.8z M46.6,104.8c0,0.6-0.5,1.2-1.2,1.2H36
	c-0.6,0-1.2-0.5-1.2-1.2V94.7c0-0.6,0.5-1.2,1.2-1.2h9.5c0.6,0,1.2,0.5,1.2,1.2V104.8z M72.1,104.8c0,0.6-0.9,1.2-2.1,1.2H52.8
	c-1.2,0-2.1-0.5-2.1-1.2V94.7c0-0.6,0.9-1.2,2.1-1.2H70c1.2,0,2.1,0.5,2.1,1.2V104.8z M72.1,82.7c0,3.4-2.8,6.2-6.2,6.2H15.5
	c-3.4,0-6.2-2.8-6.2-6.2V28.8c0-3.4,2.8-6.2,6.2-6.2h50.4c3.4,0,6.2,2.8,6.2,6.2V82.7z"/>
</svg>
