<?xml version="1.0" encoding="utf-8"?>
<!-- Generator: Adobe Illustrator 19.0.0, SVG Export Plug-In . SVG Version: 6.00 Build 0)  -->
<svg version="1.1" id="Слой_1" xmlns="http://www.w3.org/2000/svg" xmlns:xlink="http://www.w3.org/1999/xlink" x="0px" y="0px"
	 viewBox="0 0 43.4 56.7" style="enable-background:new 0 0 43.4 56.7;" xml:space="preserve">
<style type="text/css">
	.st0{fill:#231F20;}
</style>
<path id="XMLID_2_" class="st0" d="M41.8,8.7c-0.9-2.4-2.3-3.8-3.7-5.1c-1.4-1.3-3.9-2.6-6-3C30.6,0.2,28.4,0,25.6,0h-22v26.3H0v5.9
	h3.6v2.4H0v5.9h3.6v16.3h6.3V40.4h22.6v-5.9H9.9v-2.4h0.4h15.8c6.1,0,10.4-1.7,13.2-5c2.6-3.2,4.2-5.9,4.2-10.8
	C43.4,13.6,42.6,11,41.8,8.7z M33.5,23.6c-1.6,1.8-3.7,2.7-7.3,2.7H10.3v0H9.9V6h16.2c2.6,0,4.4,0.2,5.3,0.5c1.5,1,2.7,1.7,3.6,3.4
	c0.9,1.7,1.4,3.7,1.4,6C36.3,19.2,35,21.8,33.5,23.6z"/>
</svg>
