<?xml version="1.0" encoding="utf-8"?>
<!-- Generator: Adobe Illustrator 19.0.0, SVG Export Plug-In . SVG Version: 6.00 Build 0)  -->
<svg version="1.1" id="Слой_1" xmlns="http://www.w3.org/2000/svg" xmlns:xlink="http://www.w3.org/1999/xlink" x="0px" y="0px"
	 viewBox="0 0 141.7 141.7" style="enable-background:new 0 0 141.7 141.7;" xml:space="preserve">
<style type="text/css">
	.st0{fill:#333333;stroke:#FFFFFF;stroke-width:2;stroke-miterlimit:10;}
	.st1{fill:#333333;}
	.st2{fill:#FFFFFF;}
	.st3{fill:#333333;stroke:#FFFFFF;stroke-width:4;stroke-miterlimit:10;}
</style>
<g id="XMLID_2_">
	<path id="XMLID_23_" class="st0" d="M110,90c0,2.7-2.2,5-5,5H9c-2.7,0-5-2.2-5-5V50c0-2.7,2.2-5,5-5H105c2.7,0,5,2.2,5,5V90z"/>
	<path id="XMLID_22_" class="st1" d="M104.1,16c2.7,0,4.9,1.1,4.9,3.8v55.8c0,2.7-2.2,5.3-4.9,5.3H56.9c-2.7,0-5-2.4-5-5.1l7.4-55.4
		c0-2.7,2.2-4.5,5-4.5H104.1z"/>
	<polygon id="XMLID_21_" class="st1" points="17.1,14.9 12.6,17.1 17,24 17,52 21,52 21,22.8 	"/>
	<g id="XMLID_18_">
		<rect id="XMLID_20_" x="33" y="39" class="st1" width="11" height="10"/>
		<polygon id="XMLID_19_" class="st1" points="32.5,38 38.3,32 44,38 		"/>
	</g>
	<g id="XMLID_14_">
		<rect id="XMLID_17_" x="11" y="53" class="st2" width="17" height="3"/>
		<rect id="XMLID_16_" x="11" y="60" class="st2" width="17" height="3"/>
		<rect id="XMLID_15_" x="11" y="67" class="st2" width="17" height="2"/>
	</g>
	<rect id="XMLID_11_" x="4" y="90" class="st1" width="105" height="16"/>
	<g id="XMLID_7_">
		<circle id="XMLID_10_" class="st3" cx="106.2" cy="89.5" r="29.3"/>
		<circle id="XMLID_8_" class="st2" cx="106.2" cy="89.5" r="12.4"/>
	</g>
	<g id="XMLID_3_">
		<circle id="XMLID_6_" class="st3" cx="24.4" cy="99.2" r="20.4"/>
		<circle id="XMLID_4_" class="st2" cx="24.4" cy="99.2" r="8.6"/>
	</g>
</g>
</svg>
